<?xml version="1.0" standalone="no"?>
<!DOCTYPE svg PUBLIC "-//W3C//DTD SVG 20010904//EN"
 "http://www.w3.org/TR/2001/REC-SVG-20010904/DTD/svg10.dtd">
<svg version="1.0" xmlns="http://www.w3.org/2000/svg"
 width="1024.000000pt" height="1024.000000pt" viewBox="0 0 1024.000000 1024.000000"
 preserveAspectRatio="xMidYMid meet">

<g transform="translate(0.000000,1024.000000) scale(0.100000,-0.100000)"
fill="#000000" stroke="none">
<path d="M5000 8719 c-139 -36 -249 -126 -312 -257 -29 -60 -33 -78 -36 -172
-3 -88 0 -115 18 -169 46 -138 154 -246 287 -288 l53 -17 0 -131 0 -132 -122
-6 c-298 -15 -620 -124 -893 -304 -159 -105 -280 -212 -397 -351 -231 -275
-379 -601 -432 -956 -19 -126 -20 -418 -2 -536 36 -231 135 -443 285 -603 61
-65 184 -158 260 -198 l44 -23 -58 -18 c-32 -11 -86 -38 -119 -61 l-61 -42
-145 -3 c-178 -3 -278 -25 -409 -88 -78 -38 -109 -60 -181 -132 -48 -49 -103
-115 -124 -151 -41 -70 -82 -184 -90 -246 -2 -22 -5 -233 -5 -470 l-1 -430
-77 -40 c-155 -80 -296 -253 -357 -435 -90 -271 -31 -584 135 -717 100 -79
303 -65 371 28 36 48 45 97 47 253 2 169 10 211 47 256 80 94 206 80 265 -30
9 -18 13 -75 14 -205 l0 -180 30 -55 c22 -39 44 -63 79 -85 46 -28 55 -30 150
-30 92 0 105 3 147 27 53 31 116 97 152 159 32 56 67 162 67 207 l0 34 73 -63
c165 -142 357 -237 577 -282 101 -21 147 -22 895 -22 644 0 707 2 785 19 249
54 444 152 609 305 24 23 46 41 48 41 1 0 3 -15 3 -33 0 -131 114 -313 232
-373 47 -24 60 -26 137 -22 125 6 189 44 227 133 13 30 19 84 24 220 3 99 11
191 17 205 29 66 112 107 181 88 47 -13 108 -76 121 -125 6 -21 11 -104 11
-184 0 -178 13 -231 69 -282 48 -43 126 -62 218 -54 70 7 90 15 149 63 55 44
97 111 130 209 25 72 28 94 28 220 1 166 -13 226 -79 361 -80 164 -206 295
-352 368 l-53 26 0 454 c0 432 -1 457 -21 522 -43 142 -138 276 -262 368 -161
120 -299 163 -542 167 -117 3 -121 3 -178 38 -33 19 -93 47 -134 61 l-76 27
72 41 c277 160 428 360 514 681 31 115 31 118 31 366 1 221 -2 262 -22 358
-123 590 -488 1070 -1012 1332 -237 118 -459 179 -710 194 l-105 6 -3 131 -3
131 43 12 c131 39 250 155 297 292 28 82 28 219 0 295 -61 165 -186 273 -357
310 -87 18 -122 17 -212 -7z m236 -227 c123 -63 175 -213 114 -332 -116 -227
-451 -167 -477 85 -12 119 62 228 178 264 49 15 139 6 185 -17z m125 -1142
c225 -22 367 -64 569 -166 434 -220 705 -521 862 -959 69 -192 89 -296 95
-501 6 -208 -4 -303 -48 -439 -57 -177 -170 -333 -322 -444 -73 -54 -232 -133
-318 -159 -148 -45 -185 -47 -1129 -47 l-895 0 -104 27 c-195 51 -393 169
-500 296 -112 135 -189 313 -211 494 -12 94 -9 424 4 478 3 14 8 39 12 55 28
138 115 374 186 505 165 303 458 566 812 730 136 63 321 112 490 130 108 11
381 11 497 0z m1044 -2970 c140 -20 275 -122 341 -257 l29 -58 5 -540 c3 -297
2 -579 -2 -626 -29 -330 -254 -656 -578 -832 -77 -42 -224 -93 -301 -104 -30
-4 -389 -8 -799 -8 -742 0 -745 0 -830 23 -106 28 -284 115 -372 182 -150 114
-299 304 -363 463 -67 166 -68 173 -72 788 -3 370 -1 576 6 615 32 177 190
332 360 354 88 12 2495 11 2576 0z m-3085 -138 c0 -4 -9 -33 -20 -65 -11 -31
-24 -87 -30 -124 -11 -80 -12 -1086 -1 -1155 4 -27 7 -48 5 -48 -2 0 -23 14
-48 31 -97 65 -284 113 -419 108 l-62 -3 0 395 0 394 27 73 c50 137 133 248
237 314 52 33 148 64 236 77 33 5 63 9 68 10 4 0 7 -3 7 -7z m3780 -30 c164
-58 265 -139 332 -267 65 -126 68 -148 68 -574 0 -210 -3 -381 -7 -381 -5 -1
-51 -3 -103 -6 -151 -8 -301 -54 -386 -119 -18 -14 -35 -25 -37 -25 -2 0 0 26
5 57 5 31 7 314 6 628 l-3 570 -28 74 -27 74 63 -6 c34 -3 87 -15 117 -25z
m-4081 -1451 c80 -30 176 -97 241 -168 97 -106 180 -296 180 -413 0 -97 -51
-223 -110 -271 -87 -73 -161 1 -141 141 14 104 8 218 -16 270 -35 78 -96 145
-160 176 -52 26 -68 29 -158 29 -83 0 -108 -4 -145 -22 -90 -44 -160 -131
-201 -250 -18 -49 -21 -80 -20 -195 1 -126 0 -139 -19 -158 -27 -27 -42 -25
-81 7 -54 46 -109 193 -109 291 1 71 30 177 75 271 75 155 187 250 356 301 82
25 230 21 308 -9z m4485 14 c173 -37 305 -144 389 -315 77 -156 91 -246 62
-383 -15 -73 -65 -171 -95 -187 -31 -17 -68 -11 -84 12 -12 17 -16 50 -16 145
0 196 -28 283 -124 378 -67 67 -132 97 -221 102 -136 9 -260 -69 -328 -206
-31 -64 -32 -68 -35 -221 -2 -132 -5 -159 -21 -180 -20 -28 -76 -38 -101 -17
-55 43 -105 150 -119 251 -11 77 12 175 66 285 55 110 169 223 283 280 82 40
182 69 245 70 17 0 61 -6 99 -14z"/>
<path d="M4275 6327 c-65 -22 -99 -43 -139 -87 -55 -61 -76 -118 -76 -204 0
-312 420 -408 557 -128 37 75 39 184 5 252 -63 129 -225 207 -347 167z"/>
<path d="M5806 6324 c-263 -84 -292 -427 -46 -555 37 -20 60 -24 130 -24 93 0
136 16 204 76 86 75 116 226 68 335 -61 135 -221 211 -356 168z"/>
<path d="M4583 5403 c-28 -5 -63 -48 -63 -76 0 -105 196 -260 387 -306 272
-66 534 -11 729 153 90 75 110 152 55 207 -47 46 -72 38 -186 -60 -130 -113
-276 -155 -457 -134 -118 14 -209 50 -284 114 -63 53 -144 110 -153 108 -4 -1
-16 -4 -28 -6z"/>
<path d="M4335 3966 c-75 -18 -151 -64 -204 -122 -56 -61 -85 -119 -107 -212
-22 -92 -14 -324 16 -436 58 -225 209 -412 415 -515 149 -74 149 -74 633 -78
374 -4 444 -2 505 12 209 48 372 154 484 317 65 94 85 134 118 238 23 72 28
108 33 237 5 174 -5 247 -48 338 -32 67 -101 143 -164 180 -94 55 -98 55 -896
54 -540 0 -748 -4 -785 -13z"/>
</g>
</svg>
